<svg width="25" height="24" viewBox="0 0 25 24" fill="none" xmlns="http://www.w3.org/2000/svg">
<g id="ph:paint-brush-light">
<path id="Vector" d="M21.6672 2.4375C19.7172 2.4375 17.5319 3.50719 15.1703 5.61562C13.4753 7.13062 12.011 8.89687 11.0078 10.2187C10.1909 9.94711 9.32107 9.87334 8.47003 10.0035C7.61899 10.1337 6.81102 10.4641 6.11261 10.9675C5.4142 11.471 4.84532 12.1331 4.45278 12.8993C4.06024 13.6656 3.85526 14.5141 3.8547 15.375C3.8547 18.3816 1.93939 19.7241 1.85314 19.7812C1.75222 19.8482 1.67559 19.9459 1.63466 20.0599C1.59373 20.1739 1.59068 20.298 1.62596 20.4139C1.66125 20.5297 1.73298 20.6311 1.83049 20.7029C1.92801 20.7747 2.0461 20.8132 2.1672 20.8125H9.2922C10.1531 20.8119 11.0017 20.607 11.7679 20.2144C12.5341 19.8219 13.1962 19.253 13.6997 18.5546C14.2031 17.8562 14.5335 17.0482 14.6637 16.1972C14.7939 15.3461 14.7201 14.4763 14.4485 13.6594C15.7685 12.6591 17.5347 11.1919 19.0497 9.49687C21.16 7.13531 22.2297 4.95 22.2297 3C22.2297 2.85082 22.1704 2.70774 22.065 2.60225C21.9595 2.49676 21.8164 2.4375 21.6672 2.4375ZM9.2922 19.6875H3.54064C4.2222 18.8297 4.9797 17.4169 4.9797 15.375C4.9797 14.5221 5.23263 13.6883 5.70649 12.9791C6.18036 12.2699 6.85388 11.7172 7.64188 11.3908C8.42989 11.0644 9.29699 10.979 10.1335 11.1454C10.9701 11.3118 11.7385 11.7225 12.3416 12.3256C12.9447 12.9287 13.3554 13.6971 13.5218 14.5337C13.6882 15.3702 13.6028 16.2373 13.2764 17.0253C12.95 17.8133 12.3973 18.4868 11.6881 18.9607C10.9789 19.4346 10.1451 19.6875 9.2922 19.6875ZM12.0569 10.6959C12.3944 10.2581 12.7956 9.75844 13.2485 9.225C14.1279 9.79131 14.8759 10.5393 15.4422 11.4187C14.9106 11.8716 14.411 12.2728 13.9713 12.6103C13.5035 11.8219 12.8453 11.1637 12.0569 10.6959ZM16.2944 10.6678C15.6847 9.76186 14.9053 8.98252 13.9994 8.37281C15.9531 6.23062 18.5735 3.9375 21.0635 3.60375C20.7297 6.09375 18.4366 8.71875 16.2944 10.6678Z" fill="white"/>
</g>
</svg>
