<svg width="25" height="24" viewBox="0 0 25 24" fill="none" xmlns="http://www.w3.org/2000/svg">
<g id="ph:caret-double-left-light">
<path id="Vector" d="M19.6475 19.1025C19.7028 19.154 19.7471 19.2161 19.7778 19.2851C19.8086 19.3541 19.8251 19.4286 19.8264 19.5041C19.8278 19.5796 19.8139 19.6547 19.7856 19.7247C19.7573 19.7947 19.7152 19.8584 19.6618 19.9118C19.6084 19.9652 19.5447 20.0073 19.4747 20.0356C19.4046 20.0639 19.3296 20.0778 19.2541 20.0765C19.1786 20.0751 19.1041 20.0586 19.0351 20.0278C18.9661 19.9971 18.904 19.9528 18.8525 19.8975L11.3525 12.3975C11.2472 12.292 11.188 12.1491 11.188 12C11.188 11.8509 11.2472 11.708 11.3525 11.6025L18.8525 4.10251C18.9591 4.00315 19.1002 3.94905 19.2459 3.95163C19.3916 3.9542 19.5306 4.01323 19.6337 4.11629C19.7368 4.21935 19.7958 4.35839 19.7984 4.50411C19.8009 4.64984 19.7469 4.79088 19.6475 4.89751L12.5459 12L19.6475 19.1025ZM5.04593 12L12.1475 4.89751C12.2469 4.79088 12.3009 4.64984 12.2984 4.50411C12.2958 4.35839 12.2368 4.21935 12.1337 4.11629C12.0306 4.01323 11.8916 3.9542 11.7459 3.95163C11.6002 3.94905 11.4591 4.00315 11.3525 4.10251L3.85249 11.6025C3.74716 11.708 3.68799 11.8509 3.68799 12C3.68799 12.1491 3.74716 12.292 3.85249 12.3975L11.3525 19.8975C11.404 19.9528 11.4661 19.9971 11.5351 20.0278C11.6041 20.0586 11.6786 20.0751 11.7541 20.0765C11.8296 20.0778 11.9046 20.0639 11.9747 20.0356C12.0447 20.0073 12.1084 19.9652 12.1618 19.9118C12.2152 19.8584 12.2573 19.7947 12.2856 19.7247C12.3139 19.6547 12.3278 19.5796 12.3264 19.5041C12.3251 19.4286 12.3086 19.3541 12.2778 19.2851C12.2471 19.2161 12.2028 19.154 12.1475 19.1025L5.04593 12Z" fill="white"/>
</g>
</svg>
