<svg width="24" height="25" viewBox="0 0 24 25" fill="none" xmlns="http://www.w3.org/2000/svg">
<g id="ph:caret-left-light">
<path id="Vector" d="M19.1026 9.10251C19.1541 9.04724 19.2162 9.00291 19.2852 8.97217C19.3542 8.94143 19.4287 8.9249 19.5042 8.92356C19.5798 8.92223 19.6548 8.93612 19.7248 8.96441C19.7949 8.99271 19.8585 9.03481 19.9119 9.08823C19.9653 9.14164 20.0074 9.20527 20.0357 9.27531C20.064 9.34535 20.0779 9.42037 20.0766 9.4959C20.0752 9.57143 20.0587 9.64591 20.028 9.71491C19.9972 9.78391 19.9529 9.84601 19.8976 9.89751L12.3976 17.3975C12.2922 17.5028 12.1492 17.562 12.0001 17.562C11.8511 17.562 11.7081 17.5028 11.6026 17.3975L4.10263 9.89751C4.00327 9.79088 3.94918 9.64984 3.95175 9.50412C3.95432 9.35839 4.01335 9.21935 4.11641 9.11629C4.21947 9.01323 4.35851 8.9542 4.50424 8.95163C4.64996 8.94905 4.791 9.00315 4.89763 9.10251L12.0001 16.2041L19.1026 9.10251Z" fill="white"/>
</g>
</svg>
