<svg width="24" height="24" viewBox="0 0 24 24" fill="none" xmlns="http://www.w3.org/2000/svg">
<g id="ph:hands-clapping-light">
<path id="Vector" d="M15.9376 2.25V0.75C15.9376 0.600816 15.9968 0.457742 16.1023 0.352252C16.2078 0.246763 16.3509 0.1875 16.5001 0.1875C16.6492 0.1875 16.7923 0.246763 16.8978 0.352252C17.0033 0.457742 17.0626 0.600816 17.0626 0.75V2.25C17.0626 2.39918 17.0033 2.54226 16.8978 2.64775C16.7923 2.75324 16.6492 2.8125 16.5001 2.8125C16.3509 2.8125 16.2078 2.75324 16.1023 2.64775C15.9968 2.54226 15.9376 2.39918 15.9376 2.25ZM19.2066 3.67969C19.2697 3.71819 19.3398 3.74389 19.4128 3.7553C19.4858 3.76672 19.5604 3.76363 19.6322 3.74622C19.704 3.72881 19.7717 3.69741 19.8314 3.65382C19.8911 3.61023 19.9416 3.55531 19.9801 3.49219L20.7301 2.26312C20.7706 2.20006 20.7982 2.12952 20.8111 2.05566C20.824 1.98179 20.822 1.90609 20.8052 1.83301C20.7884 1.75992 20.7572 1.69093 20.7134 1.63009C20.6696 1.56925 20.614 1.51778 20.55 1.47871C20.486 1.43965 20.4148 1.41377 20.3407 1.40261C20.2665 1.39145 20.1909 1.39523 20.1182 1.41372C20.0456 1.43221 19.9773 1.46505 19.9175 1.51029C19.8577 1.55554 19.8076 1.61228 19.7701 1.67719L19.0201 2.90625C18.9815 2.96928 18.9558 3.03929 18.9443 3.11227C18.9328 3.18526 18.9358 3.25979 18.9531 3.33162C18.9704 3.40344 19.0017 3.47115 19.0452 3.53087C19.0887 3.59059 19.1436 3.64116 19.2066 3.67969ZM23.3785 5.07844C23.3559 5.00806 23.3197 4.94282 23.2719 4.88645C23.2241 4.83007 23.1657 4.78367 23.1 4.74989C23.0342 4.71611 22.9625 4.69561 22.8888 4.68957C22.8152 4.68353 22.741 4.69207 22.6707 4.71469L21.2644 5.16937C21.1362 5.20999 21.0267 5.29522 20.9559 5.40961C20.8851 5.524 20.8577 5.65997 20.8785 5.79287C20.8994 5.92577 20.9672 6.04679 21.0697 6.13399C21.1721 6.22118 21.3024 6.26877 21.4369 6.26813C21.4956 6.26794 21.5538 6.25844 21.6094 6.24L23.0157 5.78625C23.1576 5.74048 23.2756 5.6402 23.3437 5.50747C23.4117 5.37473 23.4242 5.22041 23.3785 5.07844ZM20.5819 8.85844C21.3944 10.2559 21.7189 11.8839 21.5046 13.4861C21.2902 15.0883 20.5491 16.5737 19.3979 17.7084C19.0119 19.096 18.2248 20.3387 17.1353 21.2806C16.0457 22.2226 14.7023 22.8218 13.2735 23.0031C11.8447 23.1845 10.3942 22.9399 9.10393 22.3C7.81363 21.6601 6.74103 20.6534 6.02068 19.4062L2.73943 13.7222C2.54193 13.3801 2.43797 12.9921 2.43799 12.5971C2.43801 12.2021 2.54202 11.814 2.73956 11.472C2.9371 11.1299 3.2212 10.8459 3.56332 10.6484C3.90543 10.451 4.29349 10.3471 4.68849 10.3472L4.16256 9.435C3.97111 9.10223 3.86799 8.72601 3.86302 8.34213C3.85805 7.95825 3.95138 7.57948 4.13415 7.24186C4.31691 6.90424 4.58302 6.61901 4.90716 6.41328C5.2313 6.20756 5.60269 6.0882 5.98599 6.06656C5.74565 5.57558 5.69227 5.01389 5.83583 4.48642C5.97939 3.95895 6.31007 3.50179 6.7661 3.20034C7.22212 2.89889 7.7723 2.77377 8.31384 2.84835C8.85538 2.92294 9.35125 3.19212 9.70881 3.60562C9.90101 3.25632 10.1826 2.96435 10.5247 2.75962C10.8668 2.55489 11.2572 2.44474 11.6559 2.44045C12.0545 2.43616 12.4472 2.53788 12.7936 2.7352C13.1401 2.93252 13.4279 3.21835 13.6276 3.56344L14.9063 5.77406C15.1038 5.43222 15.3879 5.14838 15.7298 4.95104C16.0718 4.7537 16.4596 4.64981 16.8544 4.64981C17.2492 4.64981 17.6371 4.7537 17.9791 4.95104C18.321 5.14838 18.605 5.43222 18.8026 5.77406L20.5819 8.85844ZM10.7044 5.25L11.2754 6.24C11.4571 6.40123 11.611 6.59127 11.731 6.8025L13.0088 9.01125C13.1942 8.68779 13.4571 8.41558 13.774 8.21917C14.0909 8.02277 14.4517 7.90835 14.8238 7.88625L12.6563 4.125C12.5071 3.86654 12.2614 3.67793 11.9731 3.60065C11.6849 3.52338 11.3777 3.56378 11.1193 3.71297C10.8608 3.86215 10.6722 4.1079 10.5949 4.39615C10.5177 4.6844 10.5581 4.99154 10.7072 5.25H10.7044ZM7.03131 5.63906L7.60318 6.62906C7.67762 6.69584 7.74747 6.76756 7.81224 6.84375C7.99502 6.50861 8.26033 6.22568 8.58303 6.02176C8.90574 5.81783 9.27516 5.69966 9.65631 5.67844L8.98037 4.51406C8.9065 4.38609 8.80815 4.27391 8.69093 4.18394C8.57371 4.09398 8.43991 4.02798 8.29719 3.98972C8.15446 3.95146 8.0056 3.94168 7.85909 3.96095C7.71259 3.98022 7.57131 4.02816 7.44334 4.10203C7.18488 4.25122 6.99626 4.49696 6.91899 4.78521C6.84172 5.07346 6.88212 5.3806 7.03131 5.63906ZM18.3301 17.3522C18.5425 16.5675 18.5972 15.7484 18.4912 14.9424C18.3852 14.1364 18.1204 13.3593 17.7122 12.6562L15.931 9.57094C15.7843 9.32092 15.5468 9.13717 15.2679 9.058C14.9891 8.97884 14.6904 9.01036 14.4342 9.14601C14.1781 9.28165 13.9841 9.51095 13.8929 9.78608C13.8016 10.0612 13.8201 10.361 13.9444 10.6228L15.0132 12.4697C15.0517 12.5337 15.0771 12.6048 15.0879 12.6787C15.0987 12.7527 15.0946 12.828 15.0759 12.9004C15.0573 12.9728 15.0243 13.0407 14.9791 13.1002C14.9339 13.1597 14.8773 13.2096 14.8126 13.2469C14.7479 13.2843 14.6763 13.3084 14.6022 13.3178C14.5281 13.3273 14.4528 13.3218 14.3808 13.3018C14.3088 13.2818 14.2415 13.2477 14.1828 13.2014C14.1242 13.1551 14.0753 13.0976 14.0391 13.0322L10.7579 7.36031C10.6847 7.23197 10.5869 7.11929 10.4702 7.02872C10.3535 6.93816 10.22 6.87147 10.0775 6.83247C9.935 6.79347 9.78621 6.78292 9.63962 6.80142C9.49303 6.81993 9.35153 6.86712 9.22318 6.94031C8.96397 7.08813 8.7741 7.33286 8.69534 7.62067C8.61657 7.90848 8.65536 8.21579 8.80318 8.475L11.1122 12.4688C11.1508 12.5328 11.1762 12.6038 11.187 12.6778C11.1977 12.7517 11.1937 12.8271 11.175 12.8995C11.1563 12.9718 11.1234 13.0397 11.0782 13.0992C11.033 13.1587 10.9764 13.2086 10.9116 13.246C10.8469 13.2834 10.7754 13.3075 10.7013 13.3169C10.6271 13.3263 10.5519 13.3209 10.4799 13.3009C10.4079 13.2809 10.3405 13.2467 10.2819 13.2005C10.2232 13.1542 10.1744 13.0966 10.1382 13.0312L7.08474 7.74938C6.93268 7.4968 6.68755 7.31402 6.40209 7.24034C6.11663 7.16666 5.81365 7.20799 5.55835 7.35542C5.30305 7.50285 5.11582 7.74461 5.03695 8.02868C4.95808 8.31275 4.99387 8.61643 5.13662 8.87438L8.51162 14.7206C8.58299 14.8496 8.60089 15.0014 8.56145 15.1435C8.52202 15.2855 8.42841 15.4064 8.30075 15.4801C8.1731 15.5538 8.02162 15.5745 7.87889 15.5376C7.73616 15.5008 7.61359 15.4094 7.53756 15.2831L5.66256 12.0356C5.51337 11.7772 5.26762 11.5886 4.97938 11.5113C4.69113 11.434 4.38399 11.4744 4.12552 11.6236C3.86706 11.7728 3.67845 12.0185 3.60118 12.3068C3.52391 12.595 3.56431 12.9022 3.71349 13.1606L6.99474 18.8447C7.60663 19.9045 8.51907 20.7591 9.61666 21.3004C10.7143 21.8417 11.9477 22.0453 13.161 21.8856C14.3744 21.7258 15.5131 21.2098 16.4332 20.4029C17.3532 19.596 18.0134 18.5343 18.3301 17.3522ZM19.6079 9.42094L17.8266 6.33563C17.6774 6.07716 17.4317 5.88855 17.1434 5.81128C16.8552 5.73401 16.548 5.77441 16.2896 5.92359C16.0311 6.07278 15.8425 6.31853 15.7652 6.60678C15.688 6.89502 15.7284 7.20216 15.8776 7.46063L16.4494 8.45156C16.6302 8.61154 16.784 8.79957 16.9051 9.00844L18.6863 12.0938C19.2907 13.1361 19.627 14.3122 19.6651 15.5166C20.1843 14.5826 20.452 13.5298 20.442 12.4612C20.432 11.3926 20.1446 10.345 19.6079 9.42094Z" fill="white"/>
</g>
</svg>
