<svg width="25" height="24" viewBox="0 0 25 24" fill="none" xmlns="http://www.w3.org/2000/svg">
<g id="ph:images-square-light">
<path id="Vector" d="M20.165 3.1875H8.16504C7.81694 3.1875 7.4831 3.32578 7.23696 3.57192C6.99082 3.81806 6.85254 4.1519 6.85254 4.5V6.1875H5.16504C4.81694 6.1875 4.4831 6.32578 4.23696 6.57192C3.99082 6.81806 3.85254 7.1519 3.85254 7.5V19.5C3.85254 19.8481 3.99082 20.1819 4.23696 20.4281C4.4831 20.6742 4.81694 20.8125 5.16504 20.8125H17.165C17.5131 20.8125 17.847 20.6742 18.0931 20.4281C18.3393 20.1819 18.4775 19.8481 18.4775 19.5V17.8125H20.165C20.5131 17.8125 20.847 17.6742 21.0931 17.4281C21.3393 17.1819 21.4775 16.8481 21.4775 16.5V4.5C21.4775 4.1519 21.3393 3.81806 21.0931 3.57192C20.847 3.32578 20.5131 3.1875 20.165 3.1875ZM7.97754 4.5C7.97754 4.45027 7.99729 4.40258 8.03246 4.36742C8.06762 4.33225 8.11531 4.3125 8.16504 4.3125H20.165C20.2148 4.3125 20.2625 4.33225 20.2976 4.36742C20.3328 4.40258 20.3525 4.45027 20.3525 4.5V11.4562L18.4682 9.57187C18.3463 9.44998 18.2016 9.35329 18.0423 9.28733C17.8831 9.22136 17.7124 9.18741 17.54 9.18741C17.3677 9.18741 17.197 9.22136 17.0377 9.28733C16.8785 9.35329 16.7338 9.44998 16.6119 9.57187L9.49629 16.6875H8.16504C8.11531 16.6875 8.06762 16.6677 8.03246 16.6326C7.99729 16.5974 7.97754 16.5497 7.97754 16.5V4.5ZM17.3525 19.5C17.3525 19.5497 17.3328 19.5974 17.2976 19.6326C17.2625 19.6677 17.2148 19.6875 17.165 19.6875H5.16504C5.11531 19.6875 5.06762 19.6677 5.03246 19.6326C4.99729 19.5974 4.97754 19.5497 4.97754 19.5V7.5C4.97754 7.45027 4.99729 7.40258 5.03246 7.36742C5.06762 7.33225 5.11531 7.3125 5.16504 7.3125H6.85254V16.5C6.85254 16.8481 6.99082 17.1819 7.23696 17.4281C7.4831 17.6742 7.81694 17.8125 8.16504 17.8125H17.3525V19.5ZM20.165 16.6875H11.0872L17.4069 10.3678C17.4243 10.3504 17.445 10.3365 17.4678 10.3271C17.4905 10.3177 17.5149 10.3128 17.5396 10.3128C17.5642 10.3128 17.5886 10.3177 17.6114 10.3271C17.6341 10.3365 17.6548 10.3504 17.6722 10.3678L20.3525 13.0472V16.5C20.3525 16.5497 20.3328 16.5974 20.2976 16.6326C20.2625 16.6677 20.2148 16.6875 20.165 16.6875ZM11.915 10.3125C12.323 10.3125 12.7217 10.1915 13.0609 9.96491C13.4001 9.73828 13.6644 9.41616 13.8205 9.03928C13.9766 8.66241 14.0175 8.24771 13.9379 7.84763C13.8583 7.44754 13.6619 7.08004 13.3734 6.79159C13.085 6.50315 12.7175 6.30671 12.3174 6.22713C11.9173 6.14755 11.5026 6.18839 11.1258 6.3445C10.7489 6.5006 10.4268 6.76496 10.2001 7.10414C9.9735 7.44331 9.85254 7.84208 9.85254 8.25C9.85254 8.79701 10.0698 9.32161 10.4566 9.70841C10.8434 10.0952 11.368 10.3125 11.915 10.3125ZM11.915 7.3125C12.1005 7.3125 12.2817 7.36748 12.4359 7.4705C12.5901 7.57351 12.7102 7.71993 12.7812 7.89123C12.8521 8.06254 12.8707 8.25104 12.8345 8.4329C12.7984 8.61475 12.7091 8.7818 12.578 8.91291C12.4468 9.04402 12.2798 9.13331 12.0979 9.16949C11.9161 9.20566 11.7276 9.18709 11.5563 9.11614C11.385 9.04518 11.2386 8.92502 11.1355 8.77085C11.0325 8.61668 10.9775 8.43542 10.9775 8.25C10.9775 8.00136 11.0763 7.7629 11.2521 7.58709C11.4279 7.41127 11.6664 7.3125 11.915 7.3125Z" fill="white"/>
</g>
</svg>
