<svg width="25" height="24" viewBox="0 0 25 24" fill="none" xmlns="http://www.w3.org/2000/svg">
<g id="ph:sparkle-light">
<path id="Vector" d="M18.792 12.2756L13.9498 10.4944C13.9254 10.4851 13.9032 10.4707 13.8846 10.4523C13.866 10.4339 13.8515 10.4118 13.842 10.3875L12.0608 5.54437C11.9684 5.294 11.8015 5.07796 11.5826 4.92537C11.3637 4.77277 11.1032 4.69096 10.8364 4.69096C10.5695 4.69096 10.3091 4.77277 10.0902 4.92537C9.87123 5.07796 9.70435 5.294 9.61201 5.54437L7.83076 10.3866C7.82144 10.411 7.80712 10.4332 7.78872 10.4518C7.77031 10.4703 7.74823 10.4848 7.72388 10.4944L2.88076 12.2756C2.63039 12.368 2.41434 12.5349 2.26175 12.7538C2.10915 12.9727 2.02734 13.2331 2.02734 13.5C2.02734 13.7669 2.10915 14.0273 2.26175 14.2462C2.41434 14.4651 2.63039 14.632 2.88076 14.7244L7.72294 16.5056C7.74737 16.5149 7.76958 16.5293 7.78815 16.5477C7.80672 16.5661 7.82123 16.5882 7.83076 16.6125L9.61201 21.4556C9.70435 21.706 9.87123 21.922 10.0902 22.0746C10.3091 22.2272 10.5695 22.309 10.8364 22.309C11.1032 22.309 11.3637 22.2272 11.5826 22.0746C11.8015 21.922 11.9684 21.706 12.0608 21.4556L13.842 16.6134C13.8513 16.589 13.8656 16.5668 13.884 16.5482C13.9024 16.5297 13.9245 16.5152 13.9489 16.5056L18.792 14.7244C19.0424 14.632 19.2584 14.4651 19.411 14.2462C19.5636 14.0273 19.6454 13.7669 19.6454 13.5C19.6454 13.2331 19.5636 12.9727 19.411 12.7538C19.2584 12.5349 19.0424 12.368 18.792 12.2756ZM18.4029 13.6688L13.5598 15.45C13.3826 15.5155 13.2217 15.6186 13.0881 15.7523C12.9546 15.886 12.8517 16.0471 12.7864 16.2244L11.0051 21.0666C10.9923 21.101 10.9693 21.1307 10.9392 21.1517C10.909 21.1727 10.8731 21.1839 10.8364 21.1839C10.7996 21.1839 10.7638 21.1727 10.7336 21.1517C10.7034 21.1307 10.6804 21.101 10.6676 21.0666L8.88638 16.2234C8.82066 16.0465 8.71755 15.8858 8.58407 15.7523C8.45059 15.6188 8.2899 15.5157 8.11294 15.45L3.27076 13.6688C3.23631 13.656 3.2066 13.6329 3.18562 13.6028C3.16464 13.5726 3.15339 13.5367 3.15339 13.5C3.15339 13.4633 3.16464 13.4274 3.18562 13.3972C3.2066 13.3671 3.23631 13.344 3.27076 13.3312L8.11388 11.55C8.29112 11.4845 8.45204 11.3814 8.58557 11.2477C8.71909 11.114 8.82204 10.9529 8.88732 10.7756L10.6686 5.93344C10.6814 5.89899 10.7044 5.86928 10.7345 5.8483C10.7647 5.82732 10.8006 5.81607 10.8373 5.81607C10.8741 5.81607 10.9099 5.82732 10.9401 5.8483C10.9703 5.86928 10.9933 5.89899 11.0061 5.93344L12.7873 10.7766C12.8528 10.9538 12.956 11.1147 13.0896 11.2483C13.2233 11.3818 13.3844 11.4847 13.5617 11.55L18.4039 13.3312C18.4383 13.344 18.468 13.3671 18.489 13.3972C18.51 13.4274 18.5212 13.4633 18.5212 13.5C18.5212 13.5367 18.51 13.5726 18.489 13.6028C18.468 13.6329 18.4383 13.656 18.4039 13.6688H18.4029ZM14.0211 3.75C14.0211 3.60082 14.0803 3.45774 14.1858 3.35225C14.2913 3.24676 14.4344 3.1875 14.5836 3.1875H16.2711V1.5C16.2711 1.35082 16.3303 1.20774 16.4358 1.10225C16.5413 0.996763 16.6844 0.9375 16.8336 0.9375C16.9828 0.9375 17.1258 0.996763 17.2313 1.10225C17.3368 1.20774 17.3961 1.35082 17.3961 1.5V3.1875H19.0836C19.2328 3.1875 19.3758 3.24676 19.4813 3.35225C19.5868 3.45774 19.6461 3.60082 19.6461 3.75C19.6461 3.89918 19.5868 4.04226 19.4813 4.14775C19.3758 4.25324 19.2328 4.3125 19.0836 4.3125H17.3961V6C17.3961 6.14918 17.3368 6.29226 17.2313 6.39775C17.1258 6.50324 16.9828 6.5625 16.8336 6.5625C16.6844 6.5625 16.5413 6.50324 16.4358 6.39775C16.3303 6.29226 16.2711 6.14918 16.2711 6V4.3125H14.5836C14.4344 4.3125 14.2913 4.25324 14.1858 4.14775C14.0803 4.04226 14.0211 3.89918 14.0211 3.75ZM23.3961 8.25C23.3961 8.39918 23.3368 8.54226 23.2313 8.64775C23.1258 8.75324 22.9828 8.8125 22.8336 8.8125H21.8961V9.75C21.8961 9.89918 21.8368 10.0423 21.7313 10.1477C21.6258 10.2532 21.4828 10.3125 21.3336 10.3125C21.1844 10.3125 21.0413 10.2532 20.9358 10.1477C20.8303 10.0423 20.7711 9.89918 20.7711 9.75V8.8125H19.8336C19.6844 8.8125 19.5413 8.75324 19.4358 8.64775C19.3303 8.54226 19.2711 8.39918 19.2711 8.25C19.2711 8.10082 19.3303 7.95774 19.4358 7.85225C19.5413 7.74676 19.6844 7.6875 19.8336 7.6875H20.7711V6.75C20.7711 6.60082 20.8303 6.45774 20.9358 6.35225C21.0413 6.24676 21.1844 6.1875 21.3336 6.1875C21.4828 6.1875 21.6258 6.24676 21.7313 6.35225C21.8368 6.45774 21.8961 6.60082 21.8961 6.75V7.6875H22.8336C22.9828 7.6875 23.1258 7.74676 23.2313 7.85225C23.3368 7.95774 23.3961 8.10082 23.3961 8.25Z" fill="white" fill-opacity="0.9"/>
</g>
</svg>
