<svg width="24" height="24" viewBox="0 0 24 24" fill="none" xmlns="http://www.w3.org/2000/svg">
<g id="ph:caret-circle-down-light">
<path id="Vector" d="M12 2.4375C10.1087 2.4375 8.25991 2.99833 6.68736 4.04907C5.11482 5.09981 3.88917 6.59327 3.16541 8.34059C2.44164 10.0879 2.25227 12.0106 2.62125 13.8656C2.99022 15.7205 3.90096 17.4244 5.2383 18.7617C6.57564 20.099 8.27951 21.0098 10.1345 21.3788C11.9894 21.7477 13.9121 21.5584 15.6594 20.8346C17.4067 20.1108 18.9002 18.8852 19.9509 17.3126C21.0017 15.7401 21.5625 13.8913 21.5625 12C21.5595 9.46478 20.5511 7.03425 18.7584 5.24158C16.9658 3.44891 14.5352 2.44048 12 2.4375ZM12 20.4375C10.3312 20.4375 8.69992 19.9426 7.31238 19.0155C5.92484 18.0884 4.84338 16.7706 4.20477 15.2289C3.56616 13.6871 3.39907 11.9906 3.72463 10.3539C4.05019 8.71721 4.85379 7.21379 6.03379 6.03379C7.2138 4.85378 8.71722 4.05019 10.3539 3.72462C11.9906 3.39906 13.6871 3.56615 15.2289 4.20477C16.7706 4.84338 18.0884 5.92484 19.0155 7.31238C19.9427 8.69992 20.4375 10.3312 20.4375 12C20.435 14.237 19.5453 16.3817 17.9635 17.9635C16.3817 19.5453 14.237 20.435 12 20.4375ZM16.1475 10.1025C16.2528 10.208 16.312 10.3509 16.312 10.5C16.312 10.6491 16.2528 10.792 16.1475 10.8975L12.3975 14.6475C12.292 14.7528 12.1491 14.812 12 14.812C11.8509 14.812 11.708 14.7528 11.6025 14.6475L7.8525 10.8975C7.75314 10.7909 7.69905 10.6498 7.70162 10.5041C7.70419 10.3584 7.76323 10.2193 7.86629 10.1163C7.96935 10.0132 8.10839 9.95419 8.25411 9.95162C8.39984 9.94905 8.54087 10.0031 8.6475 10.1025L12 13.4541L15.3525 10.1025C15.458 9.99716 15.6009 9.93799 15.75 9.93799C15.8991 9.93799 16.042 9.99716 16.1475 10.1025Z" fill="#D2D0DD"/>
</g>
</svg>
