<svg width="279" height="219" viewBox="0 0 279 219" fill="none" xmlns="http://www.w3.org/2000/svg">
<path d="M104.812 13.6484H105.358L108.634 16.9238L110.817 18.8345L111.909 19.6533V20.1992L113.001 20.7451L114.093 22.1099L114.366 22.6558L116.003 23.2017L116.276 23.7476V31.6631L116.003 34.3926L114.366 37.395L114.093 37.668L113.82 41.4893V58.4121L114.093 78.6104L115.73 82.7046H116.276L115.73 79.4292L114.639 77.7915V63.5981L116.003 60.0498L117.914 57.0474L119.825 55.1367L122.281 53.772L125.83 52.4072L135.656 49.6777L138.385 48.8589L140.569 49.1318L149.849 51.8613L155.581 53.772L157.765 54.8638L160.494 57.3203L162.132 60.0498L162.405 61.4146L161.859 62.2334H162.951L163.497 63.8711L163.77 69.0571L164.042 69.876L163.77 75.8809L163.497 78.3374L162.951 78.8833L161.859 84.0693H162.405L163.497 79.7021L164.042 78.3374L164.315 69.0571L164.588 65.7817V44.4917V43.9458V40.9434L164.042 37.668L162.132 33.5737V31.6631V31.1172V23.2017L164.042 22.3828L165.953 20.1992L169.229 17.1968L172.777 13.9214H173.869L175.779 15.832L177.963 17.7427L182.057 21.564L182.603 22.6558L184.514 23.2017V34.1196L182.33 37.9409V79.7021L183.422 80.248L183.968 83.7964L186.151 84.6152L190.246 85.98L190.792 86.2529L191.064 87.3447V102.357L190.519 107.27L189.154 111.91L186.97 116.004L184.787 118.734L182.057 120.917L178.236 122.828L173.05 124.193L167.591 125.012L167.318 125.285V128.014L167.591 130.198V133.473L166.772 137.567L164.861 140.843L162.405 143.572L159.402 145.483L152.852 148.212L147.666 150.942L143.844 153.671L141.661 155.582H141.115V97.7168L146.574 92.2578L146.847 91.439V86.5259L146.574 79.1562L146.028 75.8809L144.39 73.1514L141.934 71.5137L140.296 70.6948H138.112L135.11 72.3325L133.472 73.6973L132.38 75.335L131.834 77.2456L131.562 79.7021V89.5283L131.834 92.2578L135.929 96.3521L137.293 98.2627V155.309L136.748 155.582L132.926 152.58L128.013 149.577L123.919 147.667L118.187 145.756L111.363 144.391L108.088 144.118H100.445L93.8945 144.664L91.7109 144.937H88.4355L87.6167 144.118L87.3438 143.026V86.7988L87.8896 85.98L91.9839 84.6152L93.8945 84.0693L94.4404 81.8857L94.9863 79.9751L95.5322 79.4292L95.8052 78.0645L96.0781 69.0571V38.7598L95.2593 36.5762L93.8945 33.8467L93.6216 31.6631L94.1675 31.3901L93.6216 30.5713V23.7476L94.4404 22.9287L95.5322 22.6558L97.4429 20.4722L100.172 17.7427L102.356 15.832L104.812 13.6484ZM99.6265 22.3828L99.0806 24.2935V26.2041L98.2617 26.75V27.2959H99.6265L99.8994 27.0229V22.6558L100.718 22.9287H103.994L103.721 27.2959H104.812L104.54 22.6558L104.267 22.3828H99.6265ZM105.904 22.3828L105.631 27.2959L106.45 27.0229V22.9287H111.363L110.544 22.3828H105.904ZM174.415 22.3828L173.869 22.9287L173.596 27.2959H174.415L174.688 22.9287L177.69 22.6558V22.3828H174.415ZM178.236 22.3828V22.9287H181.511V22.6558L178.236 22.3828ZM96.897 22.6558L97.1699 26.75H97.9888L97.7158 22.6558H96.897ZM112.728 22.6558V22.9287H114.093V22.6558H112.728ZM166.226 22.6558V27.0229L167.045 27.2959L168.137 27.0229V24.0205H167.864V26.75L166.772 26.4771V24.2935L166.499 22.6558H166.226ZM169.774 22.6558V22.9287H171.958V27.0229L172.504 27.2959V22.6558H169.774ZM178.509 23.2017L178.236 23.4746V27.0229L179.601 27.2959L179.328 26.75L179.055 23.4746L178.509 23.2017ZM180.692 23.2017L180.419 23.4746L180.146 26.4771L179.874 27.2959L180.965 26.75V23.2017H180.692ZM110.271 24.2935L109.999 24.8394V26.75L110.271 27.0229H111.909L112.182 26.75V24.5664L111.636 24.2935V26.2041L110.271 26.4771L110.544 25.9312V24.2935H110.271ZM102.902 46.4023L100.991 48.5859L100.718 50.2236L101.264 50.4966H104.267V46.4023H102.902ZM105.631 46.4023V50.4966H109.453L109.18 48.8589L107.269 46.6753L105.631 46.4023ZM171.958 46.1294L170.593 46.9482L169.229 48.8589L168.956 50.2236L169.501 50.4966H172.504L172.777 50.2236V46.4023L171.958 46.1294ZM174.142 46.4023V50.4966H177.417V48.8589L176.325 47.2212L174.96 46.4023H174.142ZM105.904 51.5884L105.631 51.8613V55.6826L105.904 55.9556H108.907L109.453 55.6826V51.8613L105.904 51.5884ZM169.229 51.5884L168.956 52.6802V55.6826L169.501 55.9556H172.777V51.8613L171.685 51.5884H169.229ZM102.902 51.5884L100.718 51.8613V55.6826L101.537 55.9556H103.994L104.267 55.6826V51.8613L102.902 51.5884ZM174.142 51.8613V55.6826L174.415 55.9556H176.871L177.69 55.6826V52.1343L177.417 51.8613H174.142Z" fill="#5A189A"/>
<path d="M82.4307 97.1699H83.2495L83.5225 142.479L84.0684 144.936L85.1602 146.301L87.8896 147.666H92.5298L96.897 147.12L101.264 146.847H107.815L113.001 147.393L118.733 148.757L123.1 150.395L128.832 153.397L131.834 155.581L134.837 158.311L136.748 160.494L138.385 161.859L139.477 162.132L141.115 161.04L144.663 157.219L147.666 154.762L151.487 152.306L156.673 149.849L161.859 147.938L172.504 144.663L177.69 142.752L183.968 139.75L187.789 137.021L190.519 134.291L192.702 130.743L194.067 127.194L194.613 123.646L194.886 97.1699L197.615 97.9888L200.345 99.3535L201.164 100.445V154.489L200.618 155.581L198.434 156.673L194.067 155.581L186.97 153.67L180.419 152.579L177.144 152.306H168.683L164.042 153.125L159.675 154.489L155.308 156.4L151.76 158.856L148.757 161.586L146.574 164.315L145.209 165.134L143.298 165.407H133.745L132.107 164.588L129.651 161.859L128.286 160.221L125.011 157.765L121.189 155.581L117.095 153.943L111.909 152.579L109.453 152.306H100.172L92.8027 153.397L85.7061 155.035L81.3389 156.4H78.8823L77.5176 155.308L77.2446 154.762V100.172L78.6094 99.0806L82.4307 97.1699Z" fill="#5A189A"/>
<path d="M114.639 39.8516H118.46L118.733 40.1245V44.2188H120.917V40.1245L122.008 39.8516H124.738L125.011 40.1245L125.284 43.9458H127.194L127.467 39.8516H131.289L131.562 40.1245V44.2188L133.472 43.9458L133.745 40.1245L134.018 39.8516H137.293L137.839 40.1245V43.9458L140.296 43.6729V40.1245L140.842 39.8516L144.39 40.1245L144.663 43.9458L146.574 44.2188L146.847 39.8516L150.668 40.1245V43.9458H153.125V40.1245H156.946V43.9458H159.402L159.675 40.1245L160.221 39.8516H162.951L163.224 40.1245L163.497 45.5835L163.224 45.8564L159.129 46.1294L163.224 46.4023L163.497 46.6753V58.6851L162.678 57.8662L160.767 55.4097L158.583 53.499L155.035 51.8613L142.479 48.313L139.477 47.4941L137.293 47.7671L122.827 51.8613L119.552 53.499L117.095 55.4097L114.912 58.4121H114.639V46.6753L114.912 46.4023L118.187 46.1294L114.912 45.8564L114.639 45.5835V39.8516Z" fill="#5A189A"/>
<path d="M158.311 189.154L170.32 189.427L173.596 190.246L176.052 191.884L177.69 193.249L179.601 196.524L180.146 198.435L180.419 201.437L179.874 204.712L178.236 207.715L176.052 210.444L175.779 211.536L176.871 212.082L180.146 213.447L180.419 213.993L180.146 218.087L178.782 218.36L175.233 217.268L173.05 215.903L170.593 213.447L170.32 212.901L164.042 212.628V218.087L158.038 218.36L158.311 217.268V189.154ZM164.588 194.613L164.042 194.886L163.77 197.07V204.439L164.042 207.169L167.864 207.442L171.412 206.896L173.869 205.258L174.688 203.621L174.96 202.256V199.526L174.415 197.616L172.777 195.705L170.866 194.886L168.956 194.613H164.588Z" fill="#5A189A"/>
<path d="M37.9399 189.428H45.5825L47.4932 196.251L51.5874 209.08L53.771 216.177L54.5898 217.542V218.36H48.585L48.0391 216.45L46.6743 212.083L44.2178 212.628L37.394 214.539L35.7563 215.358L35.2104 218.087L34.1187 218.36H28.9326V217.542L30.0244 215.358L33.5728 203.348L35.7563 196.524L37.667 189.701L37.9399 189.428ZM41.4883 196.797L38.2129 206.624L37.394 209.626L40.3965 208.807L44.7637 207.442L45.0366 206.351L42.3071 197.616L41.4883 196.797Z" fill="#5A189A"/>
<path d="M200.345 189.428H207.987L210.444 197.889L215.63 214.266L216.722 217.269L216.995 218.36H210.99L209.079 212.083L204.439 213.174L199.799 214.539L198.161 215.631L197.615 218.087L191.064 218.36L192.429 215.358L195.705 204.713L199.526 192.43L200.345 189.428ZM203.893 196.797L203.074 198.981L199.799 209.353L200.345 209.626L207.441 207.442L207.168 204.986L205.258 198.708L204.439 196.797H203.893Z" fill="#5A189A"/>
<path d="M93.8945 189.428H109.726L110.544 190.52L111.909 194.068L112.182 194.887H99.8994L99.6265 196.797L99.3535 201.71L102.083 200.892L107.815 200.346H109.18L108.634 203.075L108.361 205.805L108.088 206.351L106.996 206.078H103.448L101.264 207.442L99.8994 209.353L99.6265 212.083L99.8994 212.628H112.182L113.547 212.355L111.363 217.542L110.817 218.087L106.45 218.36H93.8945V189.428Z" fill="#5A189A"/>
<path d="M227.913 189.428H243.744L244.835 190.247L245.927 193.249L246.746 194.887L246.2 195.16L243.471 194.887H233.645L233.372 201.165L239.649 200.346H242.652L242.106 205.805L241.833 206.351L240.741 206.078H237.466L235.282 207.169L233.917 209.08L233.645 209.899V218.087L231.188 218.36H227.64V189.701L227.913 189.428Z" fill="#5A189A"/>
<path d="M135.11 189.154H139.204L144.663 190.519L144.117 191.884L141.934 195.978L140.569 195.432L138.112 194.613H136.202L132.653 195.705L130.197 197.616L128.832 200.072L128.286 202.529V204.985L129.105 208.261L130.743 210.444L132.107 211.536L134.564 212.628L135.929 212.901H138.658L141.388 212.082L142.752 210.99L143.025 210.444L144.117 210.99L147.12 213.993L146.847 215.084L143.025 217.268L139.204 218.36H135.11L131.562 217.268L129.378 216.176L126.648 213.72L124.738 211.263L123.1 207.715L122.827 206.35V201.164L123.919 197.889L125.557 195.159L127.74 192.703L130.47 190.792L134.018 189.427L135.11 189.154Z" fill="#5A189A"/>
<path d="M190.519 117.096H191.064V122.282L190.246 126.922L189.154 129.651L187.243 132.654L185.605 134.564L182.33 137.021L177.963 139.478L171.139 142.207L168.683 143.026L167.864 142.753L169.501 140.296L170.866 136.748L171.412 133.746V130.197L171.139 127.468L177.417 126.103L181.784 124.465L184.787 122.828L187.789 120.371L190.519 117.096Z" fill="#5A189A"/>
<path d="M262.304 189.154H272.13L275.952 189.7L277.043 191.884L278.135 194.34V194.886H270.493L270.22 195.978L269.947 205.258V218.087L269.674 218.36H264.215V195.432L264.488 194.886L259.575 195.159H256.299L257.118 192.157L258.21 189.973L259.302 189.427L262.304 189.154Z" fill="#5A189A"/>
<path d="M8.18848 189.154H12.0098L19.3794 189.427L20.1982 190.519L21.8359 194.34V195.159L18.8335 194.886H13.9204V218.36H8.18848V194.886L0 195.159L0.545898 193.521L1.91064 189.973L2.72949 189.427L8.18848 189.154Z" fill="#5A189A"/>
<path d="M65.5078 189.428H70.9668L71.2397 189.701L70.9668 212.901L82.4307 212.628L83.5225 212.355L83.2495 213.72L81.3389 218.087L76.6987 218.36H64.9619L65.5078 216.45V189.428Z" fill="#5A189A"/>
<path d="M73.6963 55.6816L74.2422 55.9546L75.334 59.23L76.9717 61.6865L79.4282 63.8701L82.1577 65.2349L84.0684 65.5078L83.2495 66.3267L79.4282 68.2373L77.7905 69.6021L75.8799 72.3315L75.061 74.2422L74.5151 76.1528L73.6963 75.334L71.5127 71.2397L69.3291 69.0562L65.5078 67.1455L64.1431 66.5996V66.0537L68.5103 63.8701L71.5127 61.4136L73.1504 57.8652L73.6963 55.6816Z" fill="#5A189A"/>
<path d="M204.712 55.6816L205.258 56.7734L206.35 60.3218L208.26 62.7783L209.898 64.1431L214.811 66.5996L211.809 67.6914L208.533 69.875L207.168 70.9668L205.804 73.1504L204.985 76.4258L204.166 75.6069L202.255 71.2397L200.891 69.6021L196.796 67.1455L194.613 66.3267L194.886 65.7808L198.161 64.689L200.891 62.7783L202.528 60.8677L204.166 57.5923L204.712 55.6816Z" fill="#5A189A"/>
<path d="M104.267 0.273438L105.358 0.546387L105.631 2.45703L108.634 3.00293L110.544 3.82178L111.09 5.45947L110.817 7.64307L112.182 7.37012H116.276L116.549 7.64307V9.00781L115.458 9.28076L114.366 8.18896L113.547 9.28076L112.728 9.55371H110.271L108.361 8.73486L108.634 7.64307L109.453 7.37012L110.544 7.91602V7.37012L107.269 6.82422L105.358 6.55127V12.8291H104.812L104.54 1.63818L104.267 0.273438Z" fill="#5A189A"/>
<path d="M78.8823 34.9375L79.4282 35.2104L80.52 37.667L82.7036 39.3047L84.6143 40.1235L84.3413 40.6694L82.1577 41.7612L81.3389 42.0342V42.5801H80.793L80.2471 43.9448L79.4282 45.8555H78.8823L78.0635 43.6719L76.6987 42.3071L74.5151 40.9424L73.6963 40.6694V40.1235L76.1528 39.0317L77.5176 37.9399L78.3364 36.5752L78.8823 34.9375Z" fill="#5A189A"/>
<path d="M56.2275 41.7617L57.0464 42.0347L57.8652 44.2183L59.7759 45.856L62.2324 46.9478L61.1406 47.7666L58.957 49.1313L57.5923 50.769L57.0464 52.6797H56.5005L55.1357 49.9502L53.498 48.5854L51.0415 47.7666L52.4062 46.6748L54.8628 45.0371L55.9546 43.1265L56.2275 41.7617Z" fill="#5A189A"/>
<path d="M199.253 35.4844L199.799 35.7573L201.164 38.4868L202.528 39.5786L204.985 40.9434L204.712 41.4893L202.528 42.3081L200.618 44.2188L199.526 46.4023L198.98 45.8564L198.161 43.9458L197.069 42.5811L195.432 41.7622L194.067 41.4893L194.34 40.6704L197.069 39.3057L198.434 37.9409L199.253 35.4844Z" fill="#5A189A"/>
<path d="M221.362 42.3066L222.181 42.8525L223.545 45.582L226.002 47.2197L226.821 48.0386L223.545 49.6763L223 50.7681L221.635 53.2246L220.27 50.4951L218.359 48.8574L216.176 48.0386L217.268 47.2197L219.997 45.3091L220.816 44.2173L221.362 42.3066Z" fill="#5A189A"/>
<path d="M173.05 0L173.869 0.272949V2.72949H175.779L178.509 3.54834L179.055 4.09424V7.64258H182.603L182.33 9.00732L181.238 9.55322H178.509V9.00732L177.69 9.28027L176.598 8.46143L177.144 7.36963L177.417 7.09668L174.142 6.55078L173.869 6.27783L173.323 12.8286L172.777 12.2827V4.36719L173.05 0Z" fill="#5A189A"/>
<path d="M183.422 7.36914L184.787 7.64209V9.00684H183.695L182.876 8.18799V7.64209L183.422 7.36914Z" fill="#5A189A"/>
</svg>
